/* XPM */
static char *gschem_attribute[] = {
/* columns rows colors chars-per-pixel */
"16 16 100 2 ",
"   c None",
".  c #2E3436",
"X  c #353939",
"o  c #34393A",
"O  c #414340",
"+  c #414341",
"@  c #424542",
"#  c #454642",
"$  c #454643",
"%  c #474943",
"&  c #4B4C49",
"*  c #5E5D56",
"=  c #645F53",
"-  c #625F54",
";  c #6C675B",
":  c #746C5C",
">  c #786F5E",
",  c #756E60",
"<  c #766F60",
"1  c #756F62",
"2  c #7B7363",
"3  c #D05D00",
"4  c #D35F00",
"5  c #D56100",
"6  c #D66200",
"7  c #D16107",
"8  c #D16206",
"9  c #D96400",
"0  c #DD6700",
"q  c #D86705",
"w  c #D86706",
"e  c #E06900",
"r  c #E36C00",
"t  c #E66E00",
"y  c #EA7100",
"u  c #ED7300",
"i  c #E9770D",
"p  c #E9770E",
"a  c #F07500",
"s  c #F37800",
"d  c #F57D07",
"f  c #857C6C",
"g  c #897F6E",
"h  c #F68414",
"j  c #F38B23",
"k  c #F79836",
"l  c #898070",
"z  c #988C77",
"x  c #9B8F7A",
"c  c #B5A07E",
"v  c #E99A48",
"b  c #F5B05E",
"n  c #F5B162",
"m  c #EDB57E",
"M  c #B6A283",
"N  c #B5A386",
"B  c #B6A487",
"V  c #B8A280",
"C  c #B9A585",
"Z  c #BEA784",
"A  c #B2A288",
"S  c #B6A58B",
"D  c #B6A78F",
"F  c #BEAB8C",
"G  c #CAB28E",
"H  c #C7B699",
"J  c #D2BB97",
"K  c #FECA80",
"L  c #E1C69B",
"P  c #E4C89D",
"I  c #FAC896",
"U  c #FDD396",
"Y  c #FDD599",
"T  c #FDD69B",
"R  c #FDD79F",
"E  c #D4C0A2",
"W  c #F2D4A5",
"Q  c #F9D7A3",
"!  c #FBD6A6",
"~  c #FDDAA5",
"^  c #FBDAAA",
"/  c #FCD8AC",
"(  c #E9D2B0",
")  c #FEE1B7",
"_  c #FEE4BD",
"`  c #FEE4BE",
"'  c #FEE6C3",
"]  c #FDE5C5",
"[  c #FDE6C5",
"{  c #FEE8CB",
"}  c #FEEACB",
"|  c #FEEACE",
" . c #FEECD1",
".. c #FEEDD4",
"X. c #FEEED7",
"o. c #FFF0DA",
"O. c #FFF1DD",
"+. c #FFF2E0",
"@. c #FFF3E3",
"#. c #FFF5E5",
/* pixels */
"                                ",
"  s s s s s s s s s s s s s s   ",
"a I @.@.@.@.@.@.@.@.@.@.@.@.I a ",
"u @.' ' ' ' ' ' ' ' ' ' ' ' @.u ",
"u @.. H l S _ _ _ _ * E ( & @.u ",
"t O.X , g S ) ) ) ) z x S f O.t ",
"t O.O ; , M F , , M J = 2 F O.t ",
"t X.O C X M P G G L / O O W X.t ",
"0 X.% Q O C C : : c ~ > = ~ X.0 ",
"0 X.R R R R R R R R R R R R X.0 ",
"5 | R R R R R U U U U U U U | 5 ",
"4 m ' ' ' ' k s h h h h h s j 4 ",
"  4 4 4 4 4 5 p / | _ | Q p 5   ",
"                0 n K b 5       ",
"                  5 v 5         ",
"                    5           "
};
