/* XPM */
static char *gschem_path[] = {
/* columns rows colors chars-per-pixel */
"16 16 38 1 ",
"  c None",
". c #D16107",
"X c #D16206",
"o c #D86705",
"O c #D86706",
"+ c #EA790E",
"@ c #EA790F",
"# c #F57C03",
"$ c #F57C06",
"% c #4D9A05",
"& c #4E9A05",
"* c #4E9906",
"= c #4D9A06",
"- c #4D9B06",
"; c #4E9A06",
": c #4F9A06",
"> c #4E9B06",
", c #4F9B06",
"< c #4E9A07",
"1 c #519906",
"2 c #549906",
"3 c #559906",
"4 c #569806",
"5 c #549A06",
"6 c #559A06",
"7 c #E18004",
"8 c #F58212",
"9 c #F58312",
"0 c #F68312",
"q c #E99A48",
"w c #F5B05E",
"e c #F5B162",
"r c #FECA80",
"t c #FBD6A6",
"y c #FCD8AC",
"u c #FEE4BE",
"i c #FEEACB",
"p c #FEEACE",
/* pixels */
"              ; ",
"    ;;;;;;;;;;;;",
"   ;          ; ",
"   ;;           ",
"    ;;          ",
"      ;;        ",
"        ;;      ",
"          ;;    ",
"           ;;   ",
" ;          ;   ",
";;;;;;444444    ",
" ;    7$00000$$ ",
"       @ypupt@  ",
"        OerwO   ",
"         XqX    ",
"          X     "
};
