/* XPM */
static char *gschem_arc[] = {
/* columns rows colors chars-per-pixel */
"16 16 95 2 ",
"   c None",
".  c #D16107",
"X  c #D16206",
"o  c #D86705",
"O  c #D86706",
"+  c #EA790E",
"@  c #EA790F",
"#  c #F57C03",
"$  c #F57C06",
"%  c #4D9A05",
"&  c #4E9A05",
"*  c #4E9906",
"=  c #4E9A06",
"-  c #4F9A06",
";  c #4E9B06",
":  c #509C07",
">  c #519B09",
",  c #519C09",
"<  c #509D09",
"1  c #519D09",
"2  c #519E09",
"3  c #529F09",
"4  c #519C0A",
"5  c #529C0A",
"6  c #529D0B",
"7  c #519E0A",
"8  c #519F0B",
"9  c #539E0C",
"0  c #539F0E",
"q  c #549F0C",
"w  c #559F0D",
"e  c #549E0E",
"r  c #559F0F",
"t  c #53A00A",
"y  c #56A110",
"u  c #5BA216",
"i  c #62A71F",
"p  c #65AA23",
"a  c #6CB328",
"s  c #73B732",
"d  c #7DBD3F",
"f  c #F68312",
"g  c #80BC45",
"h  c #87BF51",
"j  c #E99A48",
"k  c #F5B05E",
"l  c #F5B162",
"z  c #8DCB4F",
"x  c #8FCD52",
"c  c #8FCC55",
"v  c #92C65F",
"b  c #9DE654",
"n  c #9EE656",
"m  c #A0E75B",
"M  c #A2E85E",
"N  c #9BD167",
"B  c #9FDB65",
"V  c #A0D867",
"C  c #A3DA6C",
"Z  c #A3D375",
"A  c #A5E763",
"S  c #A7E867",
"D  c #A9EA6B",
"F  c #A9E96C",
"G  c #AAE271",
"H  c #ACEA70",
"J  c #AEE874",
"K  c #B1E87A",
"L  c #B1EC78",
"P  c #B4EC7E",
"I  c #B5E783",
"U  c #B6EC81",
"Y  c #B8EB86",
"T  c #B8EE84",
"R  c #B4E189",
"E  c #BBEA8D",
"W  c #FECA80",
"Q  c #C0EB97",
"!  c #C3EE98",
"~  c #C3EE9A",
"^  c #C0F092",
"/  c #C0F093",
"(  c #C1F096",
")  c #C4F09C",
"_  c #FBD6A6",
"`  c #FCD8AC",
"'  c #CBEEA9",
"]  c #CEEDAF",
"[  c #CEEDB0",
"{  c #CFEDB1",
"}  c #CFEEB1",
"|  c #D0EEB2",
" . c #FEE4BE",
".. c #FEEACB",
"X. c #FEEACE",
/* pixels */
"                9 t : 9 9 = =   ",
"            9 s z V G B c 9 = = ",
"        9 i C J A b b m L a =   ",
"      9 d I F M M M M S I 9     ",
"      p E J F F F F F T c 9     ",
"    9 R U L L L L L L Q y       ",
"    g ~ T T T T T T ~ N 9       ",
"  9 Z ) ^ ^ ^ ^ ^ ^ ] u         ",
"  = h | } } } } ] v 9 9         ",
"= = = 9 9 9 9 9 9 = = =         ",
"  =                 =           ",
"            $ $ f f f f f $ $   ",
"              @ ` X. .X._ @     ",
"                O l W k O       ",
"                  X j X         ",
"                    X           "
};
