/* XPM */
static char *gschem_pin[] = {
/* columns rows colors chars-per-pixel */
"16 16 76 1 ",
"  c None",
". c #2E3435",
"X c #2E3436",
"o c #2E3437",
"O c #33393B",
"+ c #D16107",
"@ c #D16206",
"# c #D86705",
"$ c #D86706",
"% c #EA790E",
"& c #EA790F",
"* c #F57C03",
"= c #F57C06",
"- c #F47D06",
"; c #488F06",
": c #478909",
"> c #498D09",
", c #4A8B0C",
"< c #508D09",
"1 c #4A9206",
"2 c #4C9606",
"3 c #4E9906",
"4 c #4F9D06",
"5 c #4B9208",
"6 c #51A006",
"7 c #53A406",
"8 c #55A706",
"9 c #58AE06",
"0 c #57AC09",
"q c #59AF09",
"w c #60B013",
"e c #678D44",
"r c #6E9746",
"t c #C88004",
"y c #F58312",
"u c #F68312",
"i c #E99A48",
"p c #F5B05E",
"a c #F5B162",
"s c #878985",
"d c #888A85",
"f c #8B8D88",
"g c #8A8E8D",
"h c #B1B3AF",
"j c #BABBB8",
"k c #FECA80",
"l c #FBD6A6",
"z c #FCD8AC",
"x c #FEE4BE",
"c c #D8DAD6",
"v c #DADCD9",
"b c #DBDCD9",
"n c #DDDEDB",
"m c #DCE2D6",
"M c #FEEACB",
"N c #FEEACE",
"B c #E0E1DE",
"V c #E5E8D9",
"C c #E4EADD",
"Z c #E2E3E0",
"A c #E5E5E3",
"S c #E5E6E3",
"D c #E5E7E4",
"F c #E6E7E4",
"G c #E7E9E6",
"H c #E8E8E6",
"J c #E9EAE8",
"K c #EAEAE8",
"L c #EAEBE9",
"P c #ECEDEB",
"I c #EDEEEC",
"U c #EFF0EE",
"Y c #F1F1EC",
"T c #F1F2EF",
"R c #F1F1F0",
"E c #F2F2F1",
/* pixels */
"wq99999qw       ",
"0mDDDDDm0       ",
"8GcccccG8       ",
"8JbbhdhJrdds    ",
"8JbbbbbJ8       ",
"4JBBbbbJ4     X ",
"4JDDgOgJ4XXXXXXX",
"2UDDDDDU2     X ",
"2EHHDDDE5       ",
";EJJjgjEedd     ",
",CTTTTTC<       ",
" ,::::t-uuuuu-- ",
"       &zNxNl&  ",
"        $akp$   ",
"         @i@    ",
"          @     "
};
