/* XPM */
static char *gschem_circle[] = {
/* columns rows colors chars-per-pixel */
"16 16 70 1 ",
"  c None",
". c #D16107",
"X c #D16206",
"o c #D86705",
"O c #D86706",
"+ c #EA790E",
"@ c #EA790F",
"# c #F57C03",
"$ c #F57C06",
"% c #F47D06",
"& c #509D07",
"* c #519C09",
"= c #519D09",
"- c #529E09",
"; c #529E0A",
": c #559F0E",
"> c #5D9E10",
", c #52A009",
"< c #54A10D",
"1 c #55A010",
"2 c #56A010",
"3 c #69B024",
"4 c #6BB029",
"5 c #6FB02F",
"6 c #6FAF31",
"7 c #74AD30",
"8 c #D48305",
"9 c #F48312",
"0 c #F58312",
"q c #F68312",
"w c #E99A48",
"e c #F5B05E",
"r c #F5B162",
"t c #85C546",
"y c #92C65F",
"u c #96D559",
"i c #9BE552",
"p c #9DE756",
"a c #9EE759",
"s c #A1E65D",
"d c #A0D76B",
"f c #AADA7C",
"g c #A4E961",
"h c #A5E06C",
"j c #AAEA6C",
"k c #AEE777",
"l c #ACEA71",
"z c #ADEA71",
"x c #B1EC78",
"c c #B3E87F",
"v c #B3EC7D",
"b c #B0D583",
"n c #B0D784",
"m c #B7ED83",
"M c #B6E588",
"N c #BAE58F",
"B c #BDED8F",
"V c #BEEF8E",
"C c #BFEF90",
"Z c #FECA80",
"A c #C6F19E",
"S c #FBD6A6",
"D c #FCD8AC",
"F c #C7E5A3",
"G c #CBEEA7",
"H c #C9F1A4",
"J c #CFEFB0",
"K c #FEE4BE",
"L c #FEEACB",
"P c #FEEACE",
/* pixels */
"      ,&&,      ",
"    ;3uhhu3;    ",
"   ;tksiiskt;   ",
"   4caiiiiac4   ",
"  ,dlggggggld,  ",
"  ;MljjjjjjlM;  ",
"  ;NccccccccN;  ",
"  1fBmmmmmmBf1  ",
"   4GCBBBBCG4   ",
"   ;yJHAAHJy;   ",
"    16nFFn7>    ",
"      8%qqqqq%% ",
"       @DPKPS@  ",
"        OrZeO   ",
"         XwX    ",
"          X     "
};
