/* XPM */
static char *gschem_line[] = {
/* columns rows colors chars-per-pixel */
"16 16 27 1 ",
"  c None",
". c #D16107",
"X c #D16206",
"o c #D86705",
"O c #D86706",
"+ c #EA790E",
"@ c #EA790F",
"# c #F57C03",
"$ c #F57C06",
"% c #4D9A05",
"& c #4E9A05",
"* c #4F9A05",
"= c #4E9906",
"- c #4F9906",
"; c #4E9907",
": c #4E9A06",
"> c #4E9B06",
", c #F68312",
"< c #E99A48",
"1 c #F5B05E",
"2 c #F5B162",
"3 c #FECA80",
"4 c #FBD6A6",
"5 c #FCD8AC",
"6 c #FEE4BE",
"7 c #FEEACB",
"8 c #FEEACE",
/* pixels */
"              : ",
"             :::",
"            ::: ",
"          ::    ",
"         ::     ",
"       ::       ",
"     ::         ",
"    ::          ",
" :::            ",
":::             ",
" :              ",
"      $$,,,,,$$ ",
"       @58684@  ",
"        O231O   ",
"         X<X    ",
"          X     "
};
