/* XPM */
static char *gschem_bus[] = {
/* columns rows colors chars-per-pixel */
"16 16 24 1 ",
"  c None",
". c #D16107",
"X c #D16206",
"o c #D86705",
"O c #D86706",
"+ c #EA790E",
"@ c #EA790F",
"# c #F57C03",
"$ c #F57C06",
"% c #F68312",
"& c #E99A48",
"* c #F5B05E",
"= c #F5B162",
"- c #204A86",
"; c #204A87",
": c #214A87",
"> c #FECA80",
", c #FBD6A6",
"< c #FCD8AC",
"1 c #FEE4BE",
"2 c #B2C9E4",
"3 c #B7CDE7",
"4 c #FEEACB",
"5 c #FEEACE",
/* pixels */
"       ;;;;;;;; ",
"       ;33222233",
"       ;3;;;;;; ",
"       ;3;      ",
"       ;2;      ",
"       ;2;      ",
"       ;2;      ",
"       ;2;      ",
" ;;;;;;;2;      ",
"222222222;      ",
" ;;;;;;;;;      ",
"      $$%%%%%$$ ",
"       @<515,@  ",
"        O=>*O   ",
"         X&X    ",
"          X     "
};
