/* XPM */
static char *gschem_symbol[] = {
/* columns rows colors chars-per-pixel */
"16 16 105 2 ",
"   c None",
".  c #2F3337",
"X  c #2D3436",
"o  c #2D3437",
"O  c #2E3436",
"+  c #2F3537",
"@  c #2F3636",
"#  c #2F3834",
"$  c #303A33",
"%  c #303638",
"&  c #313738",
"*  c #313739",
"=  c #33393B",
"-  c #32412F",
";  c #3D5E28",
":  c #3C4143",
">  c #54595A",
",  c #52624D",
"<  c #617654",
"1  c #6D7271",
"2  c #717676",
"3  c #797E7D",
"4  c #CF6005",
"5  c #D06106",
"6  c #D16107",
"7  c #D86605",
"8  c #D86706",
"9  c #EA7407",
"0  c #F57B03",
"q  c #F57C03",
"w  c #F57C06",
"e  c #F57E0B",
"r  c #EA7A12",
"t  c #509A09",
"y  c #509B09",
"u  c #549D0E",
"i  c #589C0F",
"p  c #539910",
"a  c #569D10",
"s  c #549E10",
"d  c #559E10",
"f  c #579D12",
"g  c #569E12",
"h  c #579F12",
"j  c #579E13",
"k  c #579F14",
"l  c #579F15",
"z  c #599F13",
"x  c #5AA015",
"c  c #59A016",
"v  c #5AA017",
"b  c #F58619",
"n  c #94BE6B",
"m  c #E89643",
"M  c #F1A854",
"N  c #F5B464",
"B  c #96C06E",
"V  c #828785",
"C  c #848D82",
"Z  c #848987",
"A  c #8A8E8D",
"S  c #8F9391",
"D  c #A5C685",
"F  c #A7C887",
"G  c #AACB8A",
"H  c #ABCD8D",
"J  c #B4C4A6",
"K  c #FECA80",
"L  c #FACE98",
"P  c #C0D0B1",
"I  c #C4D1B9",
"U  c #C8D4BD",
"Y  c #C9DAB8",
"T  c #CBDCBA",
"R  c #FCDBB1",
"E  c #FEE5BF",
"W  c #C5C7C2",
"Q  c #CACEC7",
"!  c #D1DDC5",
"~  c #D7D9D3",
"^  c #D7D9D5",
"/  c #D8DBD6",
"(  c #DCDED8",
")  c #DDDFDB",
"_  c #D5E1CA",
"`  c #D8E4CB",
"'  c #D8E3CD",
"]  c #DBE6D1",
"[  c #DDE6D5",
"{  c #DEE0DB",
"}  c #DFE1DE",
"|  c #FEEACB",
" . c #FEEACD",
".. c #E0E5DB",
"X. c #E0E2DD",
"o. c #E0E2DE",
"O. c #E2E4DF",
"+. c #E2E4E0",
"@. c #E3E5E0",
"#. c #E5E6E2",
"$. c #E5E7E2",
"%. c #E7E8E4",
"&. c #EBECE9",
"*. c #ECEDEA",
"=. c #EDEFEC",
/* pixels */
"X     X X   f f y f y           ",
"X       - f D ! o.I < $ X X X   ",
"X X   X ; U o.V C : 3 J f       ",
"      f F #.~ % 1 W ) %.n       ",
"      f _ o./ = } } } #.Y x     ",
"X X X X X X X % o.o.o.o.] f     ",
"      f ' #.) = #.#.#.%.Y x     ",
"      f G *.} % 2 S ~ *.B       ",
"        f ' *.A A X > P f       ",
"          f G ] Q C , # X X X   ",
"            f z y x i           ",
"            0 e b b b b b 0 0   ",
"              r R  .E  .L 9     ",
"                8 N K M 8       ",
"                  5 m 4         ",
"                    5           "
};
