/* XPM */
static char *gschem_box[] = {
/* columns rows colors chars-per-pixel */
"16 16 39 1 ",
"  c None",
". c #D16107",
"X c #D16206",
"o c #D86705",
"O c #D86706",
"+ c #EA790E",
"@ c #EA790F",
"# c #F57C03",
"$ c #F57C06",
"% c #4E9906",
"& c #4E9A06",
"* c #4F9A07",
"= c #509B08",
"- c #F68312",
"; c #E99A48",
": c #F5B05E",
"> c #F5B162",
", c #84C546",
"< c #9AE650",
"1 c #A2E85D",
"2 c #94C763",
"3 c #AAEA6B",
"4 c #B0E779",
"5 c #B2EC79",
"6 c #B5E982",
"7 c #B9EE87",
"8 c #BAEA8B",
"9 c #FECA80",
"0 c #C0EB94",
"q c #C5ED9E",
"w c #C1F096",
"e c #FBD6A6",
"r c #FCD8AC",
"t c #CAEEA7",
"y c #CFEFB1",
"u c #D2EFB6",
"i c #FEE4BE",
"p c #FEEACB",
"a c #FEEACE",
/* pixels */
"              & ",
" &&&&&&&&&&&&&&&",
" &44444444444,& ",
" &6<<<<<<<<<<6& ",
" &811111111118& ",
" &033333333330& ",
" &q5555555555q& ",
" &t7777777777t& ",
" &ywwwwwwwwwwy& ",
" &2uuuuuuuuuuu& ",
"&&&===========& ",
" &    $$-----$$ ",
"       @raiae@  ",
"        O>9:O   ",
"         X;X    ",
"          X     "
};
