/* XPM */
static char *gschem_net[] = {
/* columns rows colors chars-per-pixel */
"16 16 23 1 ",
"  c None",
". c #D16107",
"X c #D16206",
"o c #D86705",
"O c #D86706",
"+ c #EA790E",
"@ c #EA790F",
"# c #F57C03",
"$ c #F57C06",
"% c #F68312",
"& c #E99A48",
"* c #F5B05E",
"= c #F5B162",
"- c #1F4B87",
"; c #204987",
": c #204A87",
"> c #204A88",
", c #FECA80",
"< c #FBD6A6",
"1 c #FCD8AC",
"2 c #FEE4BE",
"3 c #FEEACB",
"4 c #FEEACE",
/* pixels */
"              ; ",
"        ;;;;;;;;",
"        ;     ; ",
"        ;       ",
"        ;       ",
"        ;       ",
"        ;       ",
"        ;       ",
" >      ;       ",
";;>;;;;;-       ",
" ;              ",
"      $$%%%%%$$ ",
"       @1424<@  ",
"        O=,*O   ",
"         X&X    ",
"          X     "
};
