/* XPM */
static char *gschem_text[] = {
/* columns rows colors chars-per-pixel */
"16 16 101 2 ",
"   c None",
".  c #2E3436",
"X  c #2F3537",
"o  c #373D3E",
"O  c #393F41",
"+  c #404547",
"@  c #414647",
"#  c #414648",
"$  c #43484A",
"%  c #464B4D",
"&  c #494E50",
"*  c #4A4F50",
"=  c #4E5354",
"-  c #515657",
";  c #525758",
":  c #575C5E",
">  c #595E60",
",  c #5D6162",
"<  c #606565",
"1  c #606566",
"2  c #636868",
"3  c #676B6D",
"4  c #696D6F",
"5  c #6A6F6F",
"6  c #6E7273",
"7  c #757979",
"8  c #D16107",
"9  c #D16206",
"0  c #D86705",
"q  c #D86706",
"w  c #F57D07",
"e  c #E67913",
"r  c #E67914",
"t  c #F68415",
"y  c #EC9339",
"u  c #9D8468",
"i  c #A08262",
"p  c #E99A48",
"a  c #F79E44",
"s  c #F5B05E",
"d  c #F5B162",
"f  c #888984",
"g  c #888A85",
"h  c #898A85",
"j  c #898C8C",
"k  c #909393",
"l  c #969898",
"z  c #9D9F9F",
"x  c #A7AAAB",
"c  c #A9ABAC",
"v  c #B6B8B8",
"b  c #B8BAB8",
"n  c #FECA80",
"m  c #FBD6A6",
"M  c #FCD8AC",
"N  c #FEE4BE",
"B  c #C3C5C5",
"V  c #CACBCC",
"C  c #CCCDCE",
"Z  c #CFD0D0",
"A  c #D0D1D1",
"S  c #D1D2D0",
"D  c #D3D4D4",
"F  c #D6D7D5",
"G  c #D8D9D7",
"H  c #DBDCDB",
"J  c #FEEACB",
"K  c #FEEACE",
"L  c gray88",
"P  c #E0E1E0",
"I  c #E4E5E4",
"U  c #E7E7E6",
"Y  c #E9E9E8",
"T  c #E9EAE9",
"R  c #EAEBEB",
"E  c #EEEEEC",
"W  c #EEEEED",
"Q  c #EFEFED",
"!  c #F0ECE6",
"~  c #F0ECE7",
"^  c #F0ECE8",
"/  c #F2EEE8",
"(  c #F2EEE9",
")  c #F3EFEA",
"_  c #F2F0ED",
"`  c #F0F0EE",
"'  c #F0F0EF",
"]  c #F1F1EF",
"[  c gray94",
"{  c #F1F1F0",
"}  c #F2F2F0",
"|  c #F3F3F1",
" . c #F3F3F2",
".. c #F4F4F3",
"X. c #F5F5F3",
"o. c #F6F6F5",
"O. c #F9F9F8",
"+. c #FBFBFB",
"@. c #FFFDFB",
"#. c gray99",
"$. c white",
/* pixels */
"                                ",
"  g g g g g g g g g g g g g g   ",
"g F $.$.$.$.$.$.$.$.$.$.$.$.F g ",
"g $.E E ' | | C E | | ' E E $.g ",
"g $.E j . H | + L | | | | E $.g ",
"g $.' & 3 z $.+ 3 < E B 6 7 $.g ",
"g $.Z % F , $.# C > x ; F G $.g ",
"g $.k o & . U # E 5 l < U | $.g ",
"g $.: b E 5 c + O % U v - = $.g ",
"g $.E ' | | | | | | | | E E $.g ",
"g $.E ' | | ' ) ) ) ) ) ~ ~ $.g ",
"g F $.$.$.$.a w t t t t t w y g ",
"  g g g g g u r M K N K m r i   ",
"                q d n s q       ",
"                  9 p 9         ",
"                    9           "
};
